{
  "accessors": [
    {
      "bufferView": 0,
      "componentType": 5126,
      "count": 57904,
      "max": [
        0.124165996909142,
        0.173633992671967,
        0.0814929977059364
      ],
      "min": [
        -0.124291002750397,
        -0.173591002821922,
        -0.0814289972186089
      ],
      "type": "VEC3"
    },
    {
      "bufferView": 1,
      "componentType": 5126,
      "count": 57904,
      "type": "VEC3"
    },
    {
      "bufferView": 2,
      "componentType": 5126,
      "count": 57904,
      "type": "VEC2"
    },
    {
      "bufferView": 3,
      "componentType": 5123,
      "count": 299988,
      "type": "SCALAR"
    }
  ],
  "asset": {
    "generator": "MeshSmith mesh conversion tool",
    "version": "2.0"
  },
  "bufferViews": [
    {
      "buffer": 0,
      "byteLength": 694848,
      "target": 34962
    },
    {
      "buffer": 0,
      "byteLength": 694848,
      "byteOffset": 694848,
      "target": 34962
    },
    {
      "buffer": 0,
      "byteLength": 463232,
      "byteOffset": 1389696,
      "target": 34962
    },
    {
      "buffer": 0,
      "byteLength": 599976,
      "byteOffset": 1852928,
      "target": 34963
    }
  ],
  "buffers": [
    {
      "byteLength": 2452904,
      "uri": "usnm_188-100k-2048.bin"
    }
  ],
  "images": [
    {
      "uri": "usnm_188-100k-2048-diffuse.jpg"
    },
    {
      "uri": "usnm_188-100k-2048-occlusion.jpg"
    },
    {
      "uri": "usnm_188-100k-2048-normals.jpg"
    }
  ],
  "materials": [
    {
      "name": "default",
      "normalTexture": {
        "index": 2
      },
      "occlusionTexture": {
        "index": 1
      },
      "pbrMetallicRoughness": {
        "baseColorTexture": {
          "index": 0
        },
        "metallicFactor": 0.100000001490116,
        "roughnessFactor": 0.800000011920929
      }
    }
  ],
  "meshes": [
    {
      "primitives": [
        {
          "attributes": {
            "NORMAL": 1,
            "POSITION": 0,
            "TEXCOORD_0": 2
          },
          "indices": 3,
          "material": 0,
          "mode": 4
        }
      ]
    }
  ],
  "nodes": [
    {
      "mesh": 0
    }
  ],
  "scene": 0,
  "scenes": [
    {
      "nodes": [
        0
      ]
    }
  ],
  "textures": [
    {
      "source": 0
    },
    {
      "source": 1
    },
    {
      "source": 2
    }
  ]
}