{
  "accessors": [
    {
      "bufferView": 0,
      "componentType": 5126,
      "count": 58353,
      "max": [
        0.0310100000351667,
        0.0282109994441271,
        0.0327990017831326
      ],
      "min": [
        -0.0310149993747473,
        -0.0281739998608828,
        -0.0328160002827644
      ],
      "type": "VEC3"
    },
    {
      "bufferView": 1,
      "componentType": 5126,
      "count": 58353,
      "type": "VEC3"
    },
    {
      "bufferView": 2,
      "componentType": 5126,
      "count": 58353,
      "type": "VEC2"
    },
    {
      "bufferView": 3,
      "componentType": 5123,
      "count": 300000,
      "type": "SCALAR"
    }
  ],
  "asset": {
    "generator": "MeshSmith mesh conversion tool",
    "version": "2.0"
  },
  "bufferViews": [
    {
      "buffer": 0,
      "byteLength": 700236,
      "target": 34962
    },
    {
      "buffer": 0,
      "byteLength": 700236,
      "byteOffset": 700236,
      "target": 34962
    },
    {
      "buffer": 0,
      "byteLength": 466824,
      "byteOffset": 1400472,
      "target": 34962
    },
    {
      "buffer": 0,
      "byteLength": 600000,
      "byteOffset": 1867296,
      "target": 34963
    }
  ],
  "buffers": [
    {
      "byteLength": 2467296,
      "uri": "usnm_1027819-100k-2048.bin"
    }
  ],
  "images": [
    {
      "uri": "usnm_1027819-100k-2048-diffuse.jpg"
    },
    {
      "uri": "usnm_1027819-100k-2048-occlusion.jpg"
    },
    {
      "uri": "usnm_1027819-100k-2048-normals.jpg"
    }
  ],
  "materials": [
    {
      "name": "default",
      "normalTexture": {
        "index": 2
      },
      "occlusionTexture": {
        "index": 1
      },
      "pbrMetallicRoughness": {
        "baseColorTexture": {
          "index": 0
        },
        "metallicFactor": 0.100000001490116,
        "roughnessFactor": 0.800000011920929
      }
    }
  ],
  "meshes": [
    {
      "primitives": [
        {
          "attributes": {
            "NORMAL": 1,
            "POSITION": 0,
            "TEXCOORD_0": 2
          },
          "indices": 3,
          "material": 0,
          "mode": 4
        }
      ]
    }
  ],
  "nodes": [
    {
      "mesh": 0
    }
  ],
  "scene": 0,
  "scenes": [
    {
      "nodes": [
        0
      ]
    }
  ],
  "textures": [
    {
      "source": 0
    },
    {
      "source": 1
    },
    {
      "source": 2
    }
  ]
}